<?xml version="1.0" standalone="no"?>
<!DOCTYPE svg PUBLIC "-//W3C//DTD SVG 20010904//EN"
 "http://www.w3.org/TR/2001/REC-SVG-20010904/DTD/svg10.dtd">
<svg version="1.0" xmlns="http://www.w3.org/2000/svg"
 width="512.000000pt" height="512.000000pt" viewBox="0 0 512.000000 512.000000"
 preserveAspectRatio="xMidYMid meet">

<g transform="translate(0.000000,512.000000) scale(0.100000,-0.100000)"
fill="#000000" stroke="none">
<path d="M2717 4458 c-25 -9 -398 -468 -1300 -1603 -80 -102 -87 -113 -87
-155 0 -26 7 -56 16 -69 35 -49 55 -51 469 -51 l386 0 24 25 c30 29 32 64 6
96 l-19 24 -352 3 c-193 1 -350 6 -348 10 2 5 275 350 608 767 l605 759 5
-563 5 -563 24 -19 c29 -24 62 -24 91 -1 20 16 22 28 23 122 l2 105 200 -1
c270 -2 359 -24 456 -111 86 -78 124 -193 116 -353 -10 -202 -97 -314 -283
-366 -45 -12 -119 -17 -314 -21 -140 -2 -264 -6 -275 -9 -11 -3 -132 -131
-270 -286 l-250 -282 -5 231 c-5 209 -7 233 -24 252 -28 31 -79 28 -105 -5
-20 -26 -21 -38 -21 -359 0 -321 1 -333 21 -359 23 -29 73 -36 100 -13 12 9
583 648 607 677 2 3 119 8 260 11 195 5 272 10 317 23 199 55 321 175 370 361
20 77 20 264 0 351 -31 132 -129 269 -230 319 -22 10 -41 20 -43 21 -2 1 23
28 56 60 100 101 149 241 139 399 -17 246 -170 420 -411 466 -27 5 -129 9
-227 9 l-179 0 -14 34 c-24 58 -91 86 -149 64z m567 -254 c119 -30 206 -105
246 -210 19 -51 21 -74 18 -164 -3 -89 -8 -113 -30 -155 -35 -68 -101 -127
-174 -156 -55 -22 -73 -23 -264 -24 l-205 0 -3 350 c-1 192 0 356 3 362 7 20
329 18 409 -3z"/>
<path d="M2313 3340 c-110 -67 -62 -240 67 -240 69 0 130 61 130 130 -1 101
-111 163 -197 110z"/>
<path d="M2700 1899 c-40 -16 -69 -50 -81 -91 -8 -32 -6 -46 10 -82 23 -52 65
-79 125 -78 48 1 85 26 110 76 24 49 15 97 -27 142 -35 37 -93 52 -137 33z"/>
<path d="M3071 1892 c-85 -46 -93 -160 -15 -221 32 -25 101 -28 144 -6 86 44
76 193 -15 231 -46 19 -73 18 -114 -4z"/>
<path d="M3464 1896 c-47 -21 -74 -61 -74 -113 0 -84 51 -136 133 -135 46 1
81 22 107 65 38 61 14 144 -51 179 -40 21 -72 22 -115 4z"/>
<path d="M1156 993 c-76 -241 -106 -336 -106 -345 0 -5 21 -8 47 -6 41 3 48 6
53 28 5 23 10 25 77 28 l71 3 10 -31 c10 -27 15 -30 56 -30 26 0 46 3 46 6 0
3 -28 93 -62 200 l-62 194 -57 0 -57 0 -16 -47z m98 -135 c9 -32 19 -64 22
-73 5 -12 -3 -15 -46 -15 -37 0 -51 4 -48 13 3 6 13 43 23 80 10 37 21 64 25
60 5 -4 15 -34 24 -65z"/>
<path d="M1523 1020 c-52 -31 -66 -63 -71 -154 -5 -99 8 -153 48 -191 56 -54
193 -43 233 18 13 20 31 76 25 78 -50 9 -88 9 -88 -1 0 -17 -47 -60 -65 -60
-9 0 -27 11 -40 25 -22 22 -25 32 -25 105 0 73 3 83 25 105 13 14 31 25 40 25
18 0 65 -43 65 -60 0 -11 33 -13 67 -4 19 5 22 11 16 33 -3 14 -12 36 -20 48
-34 52 -149 70 -210 33z"/>
<path d="M1800 1000 l0 -40 55 0 55 0 0 -161 0 -160 43 3 42 3 3 158 3 157 55
0 55 0 -3 38 -3 37 -152 3 -153 3 0 -41z"/>
<path d="M2170 840 l0 -200 45 0 45 0 0 200 0 200 -45 0 -45 0 0 -200z"/>
<path d="M2391 1023 c-57 -28 -71 -63 -71 -181 0 -117 12 -151 63 -182 39 -24
125 -27 167 -5 61 31 70 56 70 185 0 105 -2 120 -22 145 -42 54 -139 71 -207
38z m120 -72 c22 -18 24 -27 24 -111 0 -84 -2 -93 -24 -111 -30 -24 -56 -24
-81 1 -17 17 -20 33 -20 109 0 85 1 91 26 110 33 26 45 26 75 2z"/>
<path d="M2690 839 l0 -200 41 3 42 3 -2 108 c-1 59 2 107 6 107 4 0 37 -50
71 -110 l64 -110 44 0 44 0 0 200 0 200 -45 0 -44 0 -3 -112 -3 -113 -68 113
-68 112 -40 0 -39 0 0 -201z"/>
<path d="M3060 841 l0 -201 94 0 c101 0 138 9 174 42 30 29 31 104 1 142 -19
24 -19 27 -5 42 39 38 30 113 -17 148 -24 17 -46 21 -138 24 l-109 4 0 -201z
m194 97 c19 -30 -4 -53 -58 -56 l-46 -3 0 41 0 41 46 -3 c31 -2 51 -9 58 -20z
m-4 -148 c20 -20 18 -47 -4 -62 -6 -4 -30 -8 -53 -8 l-43 0 0 45 0 45 40 0
c27 0 47 -7 60 -20z"/>
<path d="M3490 1022 c-58 -29 -75 -71 -75 -187 0 -113 11 -141 68 -175 39 -24
125 -27 168 -5 55 29 69 67 69 185 0 88 -3 110 -20 138 -36 59 -138 81 -210
44z m103 -63 c34 -18 37 -28 37 -121 0 -75 -3 -91 -20 -108 -25 -25 -51 -25
-80 -2 -41 33 -40 182 1 223 22 22 32 23 62 8z"/>
<path d="M3770 1000 l0 -40 50 0 49 0 3 -157 3 -158 43 -3 42 -3 0 160 0 161
55 0 55 0 0 40 0 40 -150 0 -150 0 0 -40z"/>
</g>
</svg>
